<?xml version="1.0" standalone="no"?>
<!DOCTYPE svg PUBLIC "-//W3C//DTD SVG 20010904//EN"
 "http://www.w3.org/TR/2001/REC-SVG-20010904/DTD/svg10.dtd">
<svg version="1.0" xmlns="http://www.w3.org/2000/svg"
 width="340.000000pt" height="340.000000pt" viewBox="0 0 340.000000 340.000000"
 preserveAspectRatio="xMidYMid meet">

<g transform="translate(0.000000,340.000000) scale(0.100000,-0.100000)"
fill="#000000" stroke="none">
<path d="M1525 3218 c-9 -22 -2 -68 10 -71 14 -3 19 63 6 76 -7 7 -12 5 -16
-5z"/>
<path d="M1360 3147 c0 -14 41 -57 53 -57 15 0 6 24 -19 46 -29 28 -34 29 -34
11z"/>
<path d="M1672 3137 c-22 -24 -29 -47 -14 -47 12 0 52 44 52 58 0 18 -14 14
-38 -11z"/>
<path d="M1461 3113 c-38 -19 -68 -62 -77 -111 -8 -40 20 -118 47 -135 10 -6
19 -21 19 -33 0 -26 16 -40 50 -47 21 -4 20 -4 -7 -6 -60 -2 -34 -20 35 -24
l67 -3 -67 -2 c-92 -3 -88 -22 5 -22 l72 0 1 55 c2 47 7 60 37 95 40 47 49 81
37 134 -21 94 -129 143 -219 99z m125 -22 c42 -19 74 -67 74 -111 0 -31 -29
-89 -52 -103 -10 -7 -18 -22 -18 -34 0 -21 -5 -23 -55 -23 -46 0 -55 3 -55 18
0 10 -14 31 -30 47 -74 70 -49 186 46 215 41 12 44 12 90 -9z m1 -307 c-3 -3
-12 -4 -19 -1 -8 3 -5 6 6 6 11 1 17 -2 13 -5z"/>
<path d="M1553 2988 l-42 -42 -25 23 c-13 12 -26 18 -30 13 -3 -5 8 -22 24
-37 l30 -29 50 49 c48 47 59 65 42 65 -4 0 -26 -19 -49 -42z"/>
<path d="M1290 2980 c0 -5 18 -10 40 -10 22 0 40 5 40 10 0 6 -18 10 -40 10
-22 0 -40 -4 -40 -10z"/>
<path d="M1700 2980 c0 -5 14 -10 30 -10 17 0 33 0 37 -1 4 0 9 4 11 10 2 7
-12 11 -37 11 -23 0 -41 -4 -41 -10z"/>
<path d="M2414 2961 c-17 -10 -41 -35 -53 -55 -26 -41 -39 -106 -22 -106 6 0
11 6 11 14 0 17 61 72 89 81 11 3 29 1 41 -5 25 -13 60 -80 60 -114 0 -14 5
-28 11 -32 6 -3 9 -15 6 -25 -7 -27 10 -13 29 23 21 41 15 134 -11 171 -20 27
-89 67 -116 67 -8 0 -28 -9 -45 -19z"/>
<path d="M1382 2847 c-22 -23 -29 -47 -14 -47 18 0 56 50 46 60 -7 7 -18 3
-32 -13z"/>
<path d="M1650 2857 c0 -14 41 -57 53 -57 14 0 6 20 -18 45 -29 28 -35 30 -35
12z"/>
<path d="M1460 2711 c0 -4 9 -20 21 -35 30 -38 80 -36 108 3 12 16 21 32 21
35 0 3 -34 6 -75 6 -41 0 -75 -4 -75 -9z m98 -27 c-10 -10 -23 -14 -37 -9 -34
10 -24 25 16 25 34 0 36 -1 21 -16z"/>
<path d="M2516 2674 c-3 -9 -6 -21 -6 -28 0 -7 -31 -59 -68 -117 -97 -147 -95
-142 -72 -172 19 -24 19 -24 -4 -46 -13 -12 -30 -19 -38 -16 -20 8 -30 -42
-22 -108 l7 -49 -36 23 c-69 45 -74 111 -17 222 22 43 40 80 40 82 0 3 -9 1
-20 -3 -11 -4 -29 -23 -39 -42 -40 -72 -60 -116 -66 -143 -7 -33 -14 -30 -109
40 -60 44 -60 44 -121 37 -33 -4 -65 -7 -72 -7 -20 0 -4 -15 71 -66 56 -38 81
-49 109 -48 42 1 80 -27 72 -54 -4 -12 3 -23 25 -35 16 -10 30 -22 30 -26 0
-12 -14 -10 -36 7 -29 22 -34 18 -27 -17 8 -42 9 -44 28 -28 33 28 51 -26 61
-190 4 -58 8 -112 10 -120 1 -8 3 -23 3 -33 1 -10 5 -16 9 -13 5 3 14 -15 20
-40 7 -25 28 -77 48 -117 l35 -72 -12 -110 c-7 -68 -9 -165 -5 -255 5 -109 3
-173 -9 -259 -9 -62 -15 -114 -13 -116 6 -5 123 -23 127 -19 13 12 53 195 63
287 8 67 15 101 19 89 4 -11 26 -92 50 -181 42 -160 42 -161 68 -155 46 9 121
47 121 60 0 7 -29 109 -64 226 -105 349 -118 433 -94 590 l11 77 49 6 49 7 -7
36 c-10 62 -45 165 -65 193 -19 27 -19 28 6 131 51 212 66 372 41 432 -14 32
-54 56 -96 56 -26 0 -56 38 -42 52 14 14 16 48 3 48 -5 0 -12 -7 -15 -16z
m-175 -709 c9 -55 14 -103 12 -107 -2 -5 -26 -8 -54 -8 l-49 0 0 113 0 114 38
-6 37 -6 16 -100z"/>
<path d="M2362 2610 c-12 -26 -19 -30 -52 -30 -39 0 -50 -11 -50 -51 0 -19 1
-19 24 -2 13 10 22 21 19 26 -2 4 9 7 26 7 24 0 34 7 46 30 8 16 15 34 15 40
0 20 -15 10 -28 -20z"/>
<path d="M857 2484 c-50 -47 -62 -117 -27 -161 l20 -26 0 27 c0 14 5 26 10 26
6 0 10 13 10 29 0 44 18 52 101 45 41 -4 80 -12 88 -18 12 -9 13 -8 8 7 -4 10
-7 22 -7 27 0 5 -14 22 -31 39 -27 27 -37 31 -87 31 -48 0 -62 -4 -85 -26z"/>
<path d="M640 1361 c0 -161 33 -206 167 -231 75 -14 95 -22 136 -56 16 -14 48
-26 75 -30 l47 -6 -3 -144 c-2 -103 -6 -144 -15 -144 -7 -1 -73 -7 -147 -14
-126 -12 -141 -16 -217 -54 l-82 -42 5 -67 c3 -38 7 -73 9 -79 2 -7 51 -13
127 -17 67 -4 193 -11 280 -16 l156 -10 144 44 c78 25 146 45 151 45 4 0 7
-12 7 -26 0 -15 12 -38 29 -55 24 -23 38 -29 75 -29 24 0 76 -11 115 -25 l70
-26 38 20 c21 10 60 42 86 70 68 72 63 89 -33 122 l-75 27 1 38 c2 48 41 493
49 554 9 65 -24 124 -95 172 -44 29 -56 33 -65 22 -7 -10 -66 -16 -221 -25
-205 -12 -214 -12 -347 11 -75 14 -137 28 -137 32 0 4 -20 8 -45 8 -37 0 -51
-6 -84 -36 -22 -19 -48 -56 -57 -81 l-17 -45 -15 29 c-9 15 -18 55 -21 87 l-6
59 -42 12 -43 13 0 -107z m955 -328 c3 -43 8 -96 11 -118 l4 -40 -25 50 c-91
183 -91 183 -28 184 l31 1 7 -77z m-316 -13 c10 -25 49 -88 88 -140 38 -52 78
-110 87 -127 19 -38 18 -38 -60 -24 -27 5 -93 11 -147 13 -115 4 -105 -11
-111 158 -2 63 -5 124 -7 135 -3 17 3 21 41 26 82 12 90 8 109 -41z"/>
<path d="M1155 1450 c-3 -5 1 -10 9 -10 9 0 16 5 16 10 0 6 -4 10 -9 10 -6 0
-13 -4 -16 -10z"/>
<path d="M2730 707 c0 -56 -110 -181 -153 -175 -16 2 -21 9 -19 26 l2 24 -42
-24 c-24 -13 -44 -31 -46 -40 -7 -36 121 -49 179 -17 11 5 29 25 40 42 20 32
20 32 13 5 -5 -22 -3 -28 10 -28 9 0 18 12 22 28 3 15 14 43 25 63 25 48 24
62 -6 96 l-24 28 -1 -28z"/>
<path d="M2370 697 c0 -26 -69 -156 -89 -166 -43 -23 -109 -8 -98 23 10 25
-26 3 -47 -29 -30 -45 -15 -58 57 -53 75 7 117 25 117 50 0 10 5 17 11 16 7
-2 15 9 19 23 4 14 19 43 33 65 18 26 24 47 21 62 -7 23 -24 31 -24 9z"/>
</g>
</svg>
