<?xml version="1.0" encoding="utf-8"?>
<!-- Generator: Adobe Illustrator 22.1.0, SVG Export Plug-In . SVG Version: 6.00 Build 0)  -->
<svg version="1.1" id="Layer_1" xmlns="http://www.w3.org/2000/svg" xmlns:xlink="http://www.w3.org/1999/xlink" x="0px" y="0px"
	 viewBox="0 0 352.1 73.5" style="enable-background:new 0 0 352.1 73.5;" xml:space="preserve">
<style type="text/css">
	.st0{fill:none;stroke:#002856;stroke-width:0.4909;}
	.st1{fill:#002856;}
</style>
<line class="st0" x1="150.3" y1="12.2" x2="150.3" y2="44.6"/>
<g>
	<path class="st1" d="M161.3,13h0.4l13.7,17.1L188.9,13h0.5v29.7h-3V23.3c0-1.3,0.1-3.4,0.1-3.4s-1.1,1.9-2.1,3.1l-8.9,11.2H175
		L166.3,23c-1-1.2-2.1-3.1-2.1-3.1s0.2,2,0.2,3.4v19.4h-3V13z"/>
	<path class="st1" d="M207.3,31.8c0-3.5-1.6-4.8-4.2-4.8c-2.5,0-4.1,1.1-5.2,2.6l-1.9-1.7c1.6-2.1,3.9-3.5,7.3-3.5c4,0,7,2.3,7,7.3
		v11h-3l0.1-2.7c-1.2,1.8-3.1,3-5.9,3c-3.8,0-6.6-1.7-6.6-5.4c0-3.7,3-5.4,6.8-5.4h5.6V31.8z M201.9,34.5c-2.3,0-4.1,0.8-4.1,3
		c0,2,1.5,3.1,4.3,3.1c2.8,0,5.1-1.5,5.1-3.8v-2.2H201.9z"/>
	<path class="st1" d="M219.6,42.7h-3V11.5h3v20c0,0.9-0.1,1.8-0.2,2.5l8.5-9.2h3.5l-6.9,7.5l7.9,10.4h-3.6l-6.5-8.4l-2.8,2.9V42.7z"
		/>
	<path class="st1" d="M244.2,40.5c2.7,0,4.5-1.1,5.7-2.4l1.9,1.8c-1.6,1.9-4,3.1-7.5,3.1c-5.9,0-9.7-4.1-9.7-9.3s4-9.3,9.2-9.3
		c5.7,0,9.2,4.4,9,10.3h-15.2C238,38.2,240.3,40.5,244.2,40.5z M249.8,32.5c-0.3-3.1-2.2-5.5-6-5.5c-3.4,0-5.7,2.2-6.2,5.5H249.8z"
		/>
	<path class="st1" d="M258,24.9h3l-0.1,3.5c1.1-2.7,3.1-3.8,5.2-3.8c1.3,0,2.3,0.3,3.1,0.9l-1.2,2.6c-0.6-0.4-1.3-0.7-2.5-0.7
		c-2.5,0-4.6,1.8-4.6,6v9.4h-3V24.9z"/>
	<path class="st1" d="M282.9,13.4h3.1V40h13.9v2.8h-17V13.4z"/>
	<path class="st1" d="M315.9,31.8c0-3.5-1.6-4.8-4.2-4.8c-2.5,0-4.1,1.1-5.2,2.6l-1.9-1.7c1.6-2.1,3.9-3.5,7.3-3.5c4,0,7,2.3,7,7.3
		v11h-3l0.1-2.7c-1.2,1.8-3.1,3-5.9,3c-3.8,0-6.6-1.7-6.6-5.4c0-3.7,3-5.4,6.8-5.4h5.6V31.8z M310.6,34.5c-2.3,0-4.1,0.8-4.1,3
		c0,2,1.5,3.1,4.3,3.1c2.8,0,5.1-1.5,5.1-3.8v-2.2H310.6z"/>
	<path class="st1" d="M328.1,38.9l0.1,3.8h-3V11.5h3v17c1.3-2.4,3.5-4.1,6.9-4.1c4.9,0,8.6,4,8.6,9.3c0,5.4-3.8,9.3-8.7,9.3
		C331.8,43.1,329.3,41.4,328.1,38.9z M340.6,33.7c0-3.8-2.4-6.6-6.2-6.6c-3.8,0-6.3,2.8-6.3,6.6c0,3.9,2.5,6.7,6.3,6.7
		C338.2,40.4,340.6,37.6,340.6,33.7z"/>
</g>
<g>
	<path class="st1" d="M9,28.1c0-8.7,6.7-15,15-15c5.3,0,9.1,1.9,11.7,5.8l-3.5,2.5c-1.6-2.5-4.4-4.2-8.2-4.2
		c-6.1,0-10.4,4.7-10.4,10.9S17.9,39,24,39c4.1,0,6.8-1.8,8.7-4.6l3.5,2.5c-2.5,3.9-6.7,6.2-12.2,6.2C15.7,43.1,9,36.8,9,28.1z"/>
	<path class="st1" d="M41.3,13.4h18.6v4h-14v11.4h12.5v3.9H45.9v6h14.7v4H41.3V13.4z"/>
	<path class="st1" d="M66.6,13.4h4.6v25.3h13.5v4H66.6V13.4z"/>
	<path class="st1" d="M90.1,13.4h18.6v4h-14v11.4h12.5v3.9H94.6v6h14.7v4H90.1V13.4z"/>
	<path class="st1" d="M115.4,13.4H126c5.5,0,8.3,3.3,8.3,7.4c0,2.8-1.4,4.8-4,5.6c3.9,0.9,6,3.7,6,7.5c0,5-3.4,8.8-9.5,8.8h-11.4
		V13.4z M125.8,24.9c2.7,0,4-1.5,4-3.7c0-2.2-1.2-3.7-4.1-3.7h-5.8v7.4H125.8z M126.5,38.7c3.5,0,5.2-2.1,5.2-5s-1.8-5-5.4-5h-6.4
		v10H126.5z"/>
</g>
</svg>
